<svg width="154" height="36" viewBox="0 0 154 36" fill="none" xmlns="http://www.w3.org/2000/svg">
<path d="M33.5092 12.7305C33.9552 12.7305 34.1039 12.8915 34.1039 13.3252V23.1383H39.1468C39.5804 23.1383 39.7415 23.2994 39.7415 23.7331V24.6004C39.7415 25.034 39.5804 25.1951 39.1468 25.1951H32.5056C32.0719 25.1951 31.8984 25.034 31.8984 24.6004V13.3252C31.8984 12.8915 32.0719 12.7305 32.5056 12.7305H33.5092Z" fill="#696871"/>
<path fill-rule="evenodd" clip-rule="evenodd" d="M49.0967 12.4702C45.9496 12.4702 44.1406 14.1925 44.1406 17.0546V20.8708C44.1406 23.733 45.962 25.4552 49.0967 25.4552C52.2315 25.4552 54.0529 23.733 54.0529 20.8708V17.0546C54.0529 14.1925 52.2439 12.4702 49.0967 12.4702ZM49.1576 14.5767C50.9666 14.5767 51.9702 15.444 51.9702 17.0547V20.8957C51.9702 22.4817 50.9666 23.3738 49.1576 23.3738C47.3486 23.3738 46.3574 22.5188 46.3574 20.8957V17.0547C46.3574 15.4564 47.3486 14.5767 49.1576 14.5767Z" fill="#696871"/>
<path d="M68.8088 18.3682C69.2921 18.3682 69.4036 18.5293 69.4036 18.963V21.3171C69.4302 22.4402 68.9474 23.5151 68.0902 24.2412C67.0391 25.0782 65.7139 25.4935 64.3731 25.4059C61.164 25.4059 59.417 23.6837 59.417 20.8215V16.9805C59.417 14.1555 61.226 12.4209 64.3731 12.4209C66.8512 12.4209 68.4619 13.3997 69.1434 15.3574C69.2207 15.5065 69.2231 15.6834 69.1499 15.8346C69.0768 15.9858 68.9366 16.0937 68.7717 16.1256L67.8052 16.4601C67.384 16.6088 67.2105 16.5221 67.0618 16.0884C66.6396 14.9997 65.5323 14.3363 64.3731 14.4777C62.5517 14.4777 61.5605 15.3574 61.5605 16.9557V20.8959C61.5605 22.519 62.5641 23.3739 64.3731 23.3739C66.1821 23.3739 67.2972 22.5438 67.2972 21.3295V20.4126H64.6085C64.1625 20.4126 64.0014 20.2392 64.0014 19.8055V18.963C64.0014 18.5293 64.1625 18.3682 64.6085 18.3682H68.8088Z" fill="#696871"/>
<path fill-rule="evenodd" clip-rule="evenodd" d="M79.4757 12.4703C76.3285 12.4703 74.5195 14.1926 74.5195 17.0547V20.871C74.5195 23.7331 76.3409 25.4554 79.4757 25.4554C82.6104 25.4554 84.4318 23.7331 84.4318 20.871V17.0547C84.4318 14.1926 82.6228 12.4703 79.4757 12.4703ZM79.5362 14.5768C81.3328 14.5768 82.3364 15.4441 82.3364 17.0548V20.8958C82.3364 22.4818 81.3452 23.3739 79.5362 23.3739C77.7272 23.3739 76.7236 22.519 76.7236 20.8958V17.0548C76.7236 15.4565 77.7396 14.5768 79.5362 14.5768Z" fill="#696871"/>
<path d="M90.2686 13.0898C90.2686 12.8172 90.3553 12.7305 90.6279 12.7305H91.1978C91.4704 12.7305 91.5324 12.8172 91.5324 13.0898V24.8358C91.5324 25.1084 91.5324 25.1951 91.1978 25.1951H90.6279C90.3553 25.1951 90.2686 25.1084 90.2686 24.8358V13.0898Z" fill="#696871"/>
<path fill-rule="evenodd" clip-rule="evenodd" d="M106.71 16.621C106.71 14.4723 104.968 12.7305 102.82 12.7305H98.1982C97.938 12.7305 97.8389 12.8172 97.8389 13.0898V24.8358C97.8389 25.1084 97.938 25.1951 98.1982 25.1951H98.7805C99.0407 25.1951 99.1027 25.1084 99.1027 24.8358V20.5116H102.82C104.968 20.5116 106.71 18.7697 106.71 16.621ZM105.047 17.9344C104.564 18.7702 103.672 19.285 102.707 19.285H98.9902V13.8828H102.707C103.672 13.8828 104.564 14.3976 105.047 15.2334C105.529 16.0691 105.529 17.0987 105.047 17.9344Z" fill="#696871"/>
<path d="M116.387 12.4823C118.352 12.2656 120.226 13.3637 120.996 15.1834C121.096 15.3817 120.996 15.5428 120.798 15.6419L120.253 15.8897C120.03 15.9764 119.943 15.964 119.807 15.7286C119.231 14.379 117.848 13.5572 116.387 13.6966C114.293 13.6966 113.153 14.5267 113.153 16.0136C113.128 16.9532 113.8 17.7674 114.727 17.9217C115.393 18.139 116.084 18.2722 116.784 18.3182C117.63 18.3633 118.466 18.5346 119.262 18.8262C120.52 19.2242 121.327 20.4498 121.195 21.7627C121.195 24.0797 119.51 25.4798 116.412 25.4798C114.318 25.7193 112.342 24.4651 111.667 22.4689C111.622 22.3795 111.62 22.275 111.661 22.1839C111.702 22.0928 111.781 22.0247 111.877 21.9981L112.422 21.7999C112.509 21.7644 112.607 21.767 112.692 21.807C112.777 21.8471 112.841 21.9209 112.868 22.0105C113.437 23.4469 114.871 24.3493 116.412 24.2407C118.754 24.2407 119.906 23.423 119.906 21.7627C119.951 20.8614 119.338 20.0596 118.456 19.867C117.815 19.6757 117.154 19.5593 116.486 19.52L115.148 19.3466C114.729 19.2577 114.316 19.146 113.909 19.012C113.508 18.8907 113.133 18.693 112.806 18.4297C112.141 17.8271 111.778 16.96 111.815 16.0631C111.902 13.8948 113.525 12.4823 116.387 12.4823Z" fill="#696871"/>
<path d="M127.874 20.9576C127.983 22.7765 129.49 24.1956 131.312 24.1956C133.134 24.1956 134.641 22.7765 134.75 20.9576V13.0898C134.75 12.8172 134.837 12.7305 135.11 12.7305H135.68C135.952 12.7305 136.039 12.8172 136.039 13.0898V20.9452C136.039 23.7578 134.379 25.4553 131.318 25.4553C128.258 25.4553 126.598 23.7578 126.598 20.9452V13.0898C126.598 12.8172 126.684 12.7305 126.945 12.7305H127.527C127.787 12.7305 127.874 12.8172 127.874 13.0898V20.9576Z" fill="#696871"/>
<path d="M153.138 12.7302C153.41 12.7302 153.497 12.8169 153.497 13.0895V24.8355C153.497 25.1081 153.41 25.1948 153.138 25.1948H152.618C152.357 25.1948 152.271 25.1081 152.271 24.8355V17.6863C152.27 16.6461 152.341 15.607 152.481 14.5763H152.407C152.02 15.5189 151.569 16.4338 151.056 17.3146L148.392 22.0105C148.326 22.1773 148.163 22.2857 147.984 22.2831H147.637C147.455 22.284 147.289 22.177 147.215 22.0105L144.514 17.265C144.035 16.3968 143.62 15.4939 143.275 14.5639H143.201C143.328 15.6041 143.394 16.6508 143.399 17.6987V24.8355C143.399 25.1081 143.312 25.1948 143.04 25.1948H142.557C142.284 25.1948 142.197 25.1081 142.197 24.8355V13.0895C142.197 12.8169 142.284 12.7302 142.557 12.7302H143.003C143.212 12.7107 143.41 12.8248 143.498 13.0152L147.835 20.7219L152.147 13.0895C152.283 12.8293 152.357 12.7921 152.63 12.7921L153.138 12.7302Z" fill="#696871"/>
<path fill-rule="evenodd" clip-rule="evenodd" d="M3.25333 1.55415V26.7188C3.25333 27.0277 3.13062 27.324 2.9122 27.5424C2.69378 27.7608 2.39754 27.8835 2.08864 27.8835H1.81606C1.17282 27.8835 0.651367 27.3621 0.651367 26.7188V1.55415C0.658159 0.915758 1.17762 0.401819 1.81606 0.401855H2.08864C2.72707 0.401819 3.24654 0.915758 3.25333 1.55415ZM17.5407 17.5063C17.7867 17.272 18.118 17.149 18.4572 17.166L18.3952 17.1908C18.7558 17.154 19.1144 17.2769 19.3766 17.5272C19.6387 17.7774 19.7782 18.1299 19.7582 18.4918V25.3064C19.7582 26.0249 19.1757 26.6074 18.4572 26.6074C17.7387 26.6074 17.1562 26.0249 17.1562 25.3064V18.405C17.1558 18.0654 17.2948 17.7405 17.5407 17.5063ZM21.2568 21.0938C21.2568 20.4095 21.8116 19.8548 22.4959 19.8548C22.8544 19.8219 23.2095 19.9465 23.4688 20.1963C23.7281 20.4461 23.8659 20.7963 23.8464 21.1558V22.655C23.8464 23.3701 23.2667 23.9498 22.5516 23.9498C21.8365 23.9498 21.2568 23.3701 21.2568 22.655V21.0938ZM11.4695 31.4024V22.4443C11.082 22.7388 10.6054 22.8918 10.1189 22.8779C9.67265 22.8669 9.24039 22.7199 8.87988 22.4566V31.4024C8.87988 32.1175 9.45958 32.6972 10.1747 32.6972C10.8898 32.6972 11.4695 32.1175 11.4695 31.4024ZM6.0652 25.8392C5.61936 25.8259 5.18776 25.6791 4.82617 25.418V34.4009C4.82617 35.1194 5.40864 35.7019 6.12715 35.7019C6.84567 35.7019 7.42813 35.1194 7.42813 34.4009V25.4799C7.02353 25.7414 6.54615 25.8673 6.0652 25.8392ZM14.343 19.8178C13.8763 19.8146 13.422 19.6674 13.042 19.3965V28.4042C13.042 29.1227 13.6245 29.7052 14.343 29.7052C15.0615 29.7052 15.644 29.1227 15.644 28.4042V19.4089C15.2509 19.7017 14.771 19.8543 14.281 19.8425L14.343 19.8178ZM6.20192 24.8852H5.92934C5.2861 24.8852 4.76465 24.3637 4.76465 23.7205V4.55269C4.77144 3.91429 5.2909 3.40035 5.92934 3.40039H6.20192C6.84035 3.40035 7.35982 3.91429 7.36661 4.55269V23.7453C7.36661 24.3885 6.84516 24.91 6.20192 24.91V24.8852ZM10.0196 21.9364H10.3045C10.9409 21.9364 11.4568 21.4205 11.4568 20.7841V7.5265C11.4569 6.88807 10.9429 6.36861 10.3045 6.36182H10.0196C9.71178 6.3618 9.4168 6.4849 9.20034 6.70369C8.98388 6.92247 8.86395 7.21875 8.86725 7.5265V20.7841C8.86725 21.4205 9.38316 21.9364 10.0196 21.9364ZM14.4038 18.9007H14.1436C13.5052 18.9007 12.9857 18.3868 12.9789 17.7484V10.6116C12.9584 10.29 13.0719 9.97432 13.2926 9.73954C13.5133 9.50476 13.8214 9.3719 14.1436 9.37256H14.4162C15.0595 9.37256 15.5809 9.89401 15.5809 10.5372V17.7236C15.5842 18.0347 15.463 18.3341 15.2442 18.5552C15.0254 18.7763 14.7273 18.9007 14.4162 18.9007H14.4038ZM18.2457 16.2364H18.5183H18.5307C19.1691 16.2296 19.6831 15.7101 19.683 15.0717V13.2255C19.6762 12.5871 19.1568 12.0732 18.5183 12.0732H18.2457C17.6073 12.0732 17.0878 12.5871 17.0811 13.2255V15.0717C17.0811 15.7149 17.6025 16.2364 18.2457 16.2364Z" fill="#696871"/>
</svg>
