<svg width="125" height="60" viewBox="0 0 125 60" fill="none" xmlns="http://www.w3.org/2000/svg">
<path d="M0.543945 35.4482H4.26104V53.6744H0.543945V35.4482Z" fill="#696871"/>
<path fill-rule="evenodd" clip-rule="evenodd" d="M10.4931 41.3082C8.02113 42.3362 6.41228 44.7526 6.41729 47.4298C6.40052 49.1885 7.09262 50.8799 8.33746 52.1224C9.5823 53.3649 11.275 54.0539 13.0337 54.0338C15.7109 54.0338 18.1243 52.4204 19.1477 49.9465C20.171 47.4726 19.6027 44.6258 17.7078 42.7345C15.813 40.8432 12.9651 40.2802 10.4931 41.3082ZM12.9864 44.6302C14.564 44.6032 15.8685 45.8528 15.9093 47.43C15.9511 48.2112 15.6643 48.9742 15.1182 49.5344C14.5722 50.0946 13.8167 50.4008 13.0347 50.3789C11.4569 50.3784 10.1745 49.1062 10.1612 47.5285C10.148 45.9508 11.4089 44.6573 12.9864 44.6302Z" fill="#696871"/>
<path fill-rule="evenodd" clip-rule="evenodd" d="M34.5939 53.055V41.1851L30.9387 41.2222V42.4613C30.0486 41.3757 28.6983 40.7741 27.296 40.8381C23.7924 40.8381 20.9521 43.6784 20.9521 47.182C20.9521 50.6856 23.7924 53.5258 27.296 53.5258C28.6995 53.5959 30.0523 52.9931 30.9387 51.9027V53.055C31.0107 53.8207 30.7231 54.5765 30.1601 55.1006C29.5972 55.6247 28.8228 55.8577 28.0642 55.7313C26.9003 55.8276 25.7954 55.2039 25.2764 54.1577L22.0797 56.0039C23.3292 58.0377 25.6094 59.2041 27.9898 59.0271C31.3104 59.0271 34.5939 57.2553 34.5939 53.055ZM29.1597 44.302C30.2845 44.8092 30.9882 45.949 30.9376 47.1818C30.9606 47.9796 30.6451 48.7498 30.0691 49.3021C29.4931 49.8545 28.7104 50.1375 27.9144 50.0812C26.6805 50.0801 25.5711 49.3294 25.1114 48.1844C24.6516 47.0394 24.9338 45.73 25.8243 44.876C26.7148 44.0219 28.035 43.7948 29.1597 44.302Z" fill="#696871"/>
<path fill-rule="evenodd" clip-rule="evenodd" d="M40.8115 41.3083C38.3395 42.3363 36.7306 44.7527 36.7356 47.4299C36.7189 49.1886 37.411 50.8801 38.6558 52.1226C39.9007 53.3651 41.5934 54.054 43.3521 54.0339C46.0293 54.0339 48.4427 52.4205 49.466 49.9466C50.4894 47.4727 49.921 44.6259 48.0262 42.7346C46.1313 40.8433 43.2835 40.2803 40.8115 41.3083ZM43.3048 44.6304C44.8823 44.6034 46.1868 45.853 46.2276 47.4302H46.2029C46.2443 48.207 45.9608 48.966 45.4202 49.5253C44.8797 50.0847 44.1308 50.394 43.3531 50.3791C41.7753 50.3786 40.4928 49.1064 40.4796 47.5287C40.4663 45.951 41.7273 44.6575 43.3048 44.6304Z" fill="#696871"/>
<path fill-rule="evenodd" clip-rule="evenodd" d="M53.9445 35.5851C52.6991 35.5851 51.6895 36.5947 51.6895 37.8401C51.6962 39.0827 52.7019 40.0884 53.9445 40.0952C55.1899 40.0952 56.1995 39.0855 56.1995 37.8401C56.1995 36.5947 55.1899 35.5851 53.9445 35.5851ZM55.7913 41.1857H52.0742V53.6751H55.7913V41.1857Z" fill="#696871"/>
<path fill-rule="evenodd" clip-rule="evenodd" d="M70.3927 51.9722C71.5115 50.7324 72.0894 49.0976 71.9984 47.4301C72.086 45.7647 71.5065 44.1331 70.3881 42.896C69.2696 41.659 67.7044 40.9186 66.0387 40.8385C64.6351 40.7711 63.2739 41.3292 62.3216 42.3625V41.1854H58.6045V58.7053H62.3216V52.5101C63.2739 53.5434 64.6351 54.1015 66.0387 54.0341C67.7067 53.9541 69.2739 53.2119 70.3927 51.9722ZM65.2845 44.5318C66.9072 44.5181 68.2412 45.8079 68.2823 47.4301H68.2575C68.3164 48.2508 68.0178 49.0568 67.4384 49.641C66.859 50.2251 66.0554 50.5303 65.2343 50.4781C63.6121 50.437 62.3223 49.103 62.336 47.4803C62.3497 45.8576 63.6618 44.5455 65.2845 44.5318Z" fill="#696871"/>
<path d="M83.5719 49.9327C83.5719 52.8072 81.0938 54.0338 78.3679 54.0338C76.1402 54.2311 74.0163 53.0539 73.0029 51.0602L76.2492 49.214C76.5207 50.1427 77.4028 50.7565 78.3679 50.6885C79.2724 50.6885 79.7185 50.4035 79.7185 49.9079C79.7185 48.5326 73.5233 49.2636 73.5233 44.9518C73.5233 42.2259 75.8279 40.8506 78.4794 40.8506C80.472 40.79 82.3407 41.8145 83.3612 43.5269L80.1026 45.2367C79.8085 44.5682 79.1479 44.1359 78.4175 44.134C77.7732 44.134 77.3767 44.3818 77.3767 44.8402C77.4263 46.2651 83.5719 45.3111 83.5719 49.9327Z" fill="#696871"/>
<path d="M97.2506 41.1857V53.6751H93.5335V52.5104C92.6564 53.5601 91.3299 54.1266 89.9651 54.0344C87.487 54.0344 85.2939 52.2378 85.2939 48.8553V41.1857H89.011V48.3101C88.9448 48.9249 89.1588 49.5369 89.5937 49.9766C90.0285 50.4163 90.6381 50.6369 91.2537 50.5775C92.6166 50.5775 93.5707 49.7845 93.5707 48.0127V41.1857H97.2506Z" fill="#696871"/>
<path d="M118.734 46.0176V53.6748H115.017V46.3398C115.017 45.1008 114.41 44.283 113.221 44.283C112.031 44.283 111.263 45.1627 111.263 46.6372V53.6748H107.546V46.3398C107.546 45.1008 106.951 44.283 105.749 44.283C104.547 44.283 103.804 45.1627 103.804 46.6372V53.6748H100.087V41.1854H103.804V42.3377C104.593 41.3037 105.852 40.7395 107.149 40.8385C108.453 40.7752 109.695 41.4007 110.42 42.4864C111.263 41.3521 112.629 40.7299 114.038 40.8385C116.863 40.8385 118.734 42.8953 118.734 46.0176Z" fill="#696871"/>
<path d="M121.908 41.1114C123.441 41.1114 124.684 39.8688 124.684 38.336C124.684 36.8031 123.441 35.5605 121.908 35.5605C120.375 35.5605 119.133 36.8031 119.133 38.336C119.133 39.8688 120.375 41.1114 121.908 41.1114Z" fill="#696871"/>
<path d="M42.6088 25.9948C49.787 25.9948 55.6062 20.1757 55.6062 12.9974C55.6062 5.81914 49.787 0 42.6088 0C35.4305 0 29.6113 5.81914 29.6113 12.9974C29.6113 20.1757 35.4305 25.9948 42.6088 25.9948Z" fill="#696871"/>
<path d="M71.6645 25.9948C78.8428 25.9948 84.6619 20.1757 84.6619 12.9974C84.6619 5.81914 78.8428 0 71.6645 0C64.4862 0 58.6671 5.81914 58.6671 12.9974C58.6671 20.1757 64.4862 25.9948 71.6645 25.9948Z" fill="#696871"/>
<rect x="0.568359" width="25.9825" height="25.9825" fill="#696871"/>
</svg>
