<svg width="146" height="31" viewBox="0 0 146 31" fill="none" xmlns="http://www.w3.org/2000/svg">
<path d="M46.9938 24.5791C46.2569 24.6191 45.5279 24.4095 44.9246 23.9844C44.4129 23.605 44.1209 22.9979 44.144 22.3612V10.8754C44.1318 10.7769 44.1657 10.6782 44.236 10.608C44.3062 10.5378 44.4048 10.5039 44.5034 10.5161H46.5849C46.8204 10.5161 46.9319 10.64 46.9319 10.8754V21.4691C46.9319 21.94 47.1425 22.1754 47.5762 22.1754C47.76 22.183 47.9439 22.1621 48.1213 22.1134C48.3691 22.1134 48.5054 22.1878 48.5178 22.4108L48.7037 23.9596C48.7217 24.051 48.6994 24.1457 48.6424 24.2193C48.5854 24.2929 48.4993 24.3383 48.4063 24.3437C47.9504 24.4943 47.474 24.5737 46.9938 24.5791Z" fill="#696871"/>
<path fill-rule="evenodd" clip-rule="evenodd" d="M51.2679 23.2536C53.4254 25.0362 56.5446 25.0362 58.7021 23.2536V23.2412C60.5682 21.2951 60.5682 18.2239 58.7021 16.2778C56.5411 14.505 53.4289 14.505 51.2679 16.2778C49.3545 18.2095 49.3545 21.322 51.2679 23.2536ZM56.7688 21.6179C55.7632 22.5289 54.2307 22.5289 53.2251 21.6179C52.3168 20.5735 52.3168 19.0196 53.2251 17.9752C54.2307 17.0643 55.7632 17.0643 56.7688 17.9752C57.6771 19.0196 57.6771 20.5735 56.7688 21.6179Z" fill="#696871"/>
<path fill-rule="evenodd" clip-rule="evenodd" d="M71.9127 15.6211C71.9127 15.3857 71.8012 15.2618 71.5658 15.2618L69.509 15.2742C69.4125 15.2661 69.3174 15.3018 69.2502 15.3715C69.1829 15.4411 69.1505 15.5374 69.1621 15.6335V15.8318C68.406 15.2535 67.4745 14.9517 66.5229 14.9768C65.2175 14.9303 63.9487 15.4128 63.0041 16.315C61.1472 18.236 61.1472 21.283 63.0041 23.204C63.9443 24.1144 65.215 24.6021 66.5229 24.5545C67.4477 24.5808 68.3548 24.2973 69.1001 23.7492V24.5298C69.1254 25.1038 68.915 25.6633 68.5178 26.0785C68.083 26.4753 67.5071 26.6807 66.9194 26.6485C66.4372 26.6582 65.9603 26.5475 65.5317 26.3264C65.18 26.1362 64.9109 25.823 64.7759 25.4466C64.7076 25.2794 64.5475 25.1678 64.367 25.1617H62.2854C61.9509 25.1617 61.9509 25.2732 61.9509 25.521C62.1252 26.5362 62.713 27.4336 63.574 27.999C64.5716 28.6457 65.7437 28.9701 66.9318 28.9283C68.2471 28.9863 69.5355 28.5435 70.5374 27.6893C71.4514 26.8887 71.9565 25.7192 71.9127 24.505V15.6211ZM68.4556 21.6183C68.0261 22.1015 67.4043 22.3693 66.7581 22.3493C66.1049 22.3682 65.476 22.1012 65.0359 21.6183C64.5915 21.108 64.3568 20.4484 64.3792 19.7721C64.3519 19.0892 64.5919 18.4224 65.0482 17.9136C65.4874 17.4292 66.117 17.162 66.7705 17.1825C67.4108 17.1614 68.0276 17.4245 68.4556 17.9012C69.3028 18.9954 69.3028 20.5241 68.4556 21.6183Z" fill="#696871"/>
<path fill-rule="evenodd" clip-rule="evenodd" d="M75.1693 23.2539C77.3303 25.0267 80.4425 25.0267 82.6035 23.2539V23.2415C84.4695 21.2954 84.4695 18.2242 82.6035 16.2781C80.4407 14.5102 77.332 14.5102 75.1693 16.2781C73.3016 18.2284 73.3016 21.3036 75.1693 23.2539ZM78.8989 22.2998C78.237 22.3202 77.5945 22.0748 77.1147 21.6184C76.2222 20.5681 76.2222 19.0258 77.1147 17.9756C77.5945 17.5192 78.237 17.2738 78.8989 17.2941C79.5566 17.2771 80.194 17.5223 80.6707 17.9756C81.5633 19.0258 81.5633 20.5681 80.6707 21.6184C80.194 22.0717 79.5566 22.3169 78.8989 22.2998Z" fill="#696871"/>
<path fill-rule="evenodd" clip-rule="evenodd" d="M86.1089 13.1555C86.7863 13.7485 87.798 13.7485 88.4755 13.1555C88.7756 12.8723 88.9457 12.4779 88.9457 12.0652C88.9457 11.6525 88.7756 11.2581 88.4755 10.9748C87.7922 10.3977 86.7922 10.3977 86.1089 10.9748C85.8088 11.2581 85.6387 11.6525 85.6387 12.0652C85.6387 12.4779 85.8088 12.8723 86.1089 13.1555ZM86.6662 23.9845C87.2711 24.4062 87.9988 24.6153 88.7353 24.5792C89.2196 24.5747 89.7002 24.4953 90.1602 24.3438C90.2532 24.3384 90.3393 24.2931 90.3963 24.2194C90.4533 24.1458 90.4757 24.0511 90.4576 23.9597L90.2717 22.4109C90.2593 22.1879 90.123 22.1136 89.8752 22.1136C89.6934 22.1614 89.5056 22.1823 89.3177 22.1755C88.8964 22.1755 88.6858 21.9401 88.6858 21.4693V15.621C88.6858 15.3856 88.5743 15.2617 88.3388 15.2617H86.2573C86.1587 15.2495 86.0601 15.2834 85.9899 15.3536C85.9197 15.4238 85.8857 15.5225 85.898 15.621V22.3614C85.8761 22.9949 86.1624 23.5997 86.6662 23.9845Z" fill="#696871"/>
<path fill-rule="evenodd" clip-rule="evenodd" d="M101.66 16.3027C100.709 15.3954 99.4303 14.9126 98.1166 14.9645C96.9696 14.9396 95.8628 15.3876 95.0562 16.2036C94.6308 15.3723 93.7437 14.8822 92.8136 14.9645C92.3576 14.9562 91.904 15.0318 91.4754 15.1876C91.2959 15.2397 91.1772 15.41 91.1905 15.5964V17.0585C91.1905 17.2567 91.3268 17.3559 91.5993 17.3559H92.0082C92.2097 17.3263 92.4134 17.3937 92.5574 17.5377C92.7014 17.6818 92.7688 17.8854 92.7392 18.0869V28.2469C92.7212 28.3434 92.7519 28.4425 92.8213 28.5118C92.8906 28.5812 92.9898 28.6119 93.0862 28.5939H95.1677C95.4032 28.5939 95.5271 28.4824 95.5271 28.2469V23.774C96.2796 24.3173 97.1888 24.6 98.1166 24.5794C99.4328 24.6324 100.713 24.1443 101.66 23.2289C103.478 21.278 103.478 18.2536 101.66 16.3027ZM97.8924 22.3485C97.2466 22.3485 96.6289 22.0846 96.1825 21.618C95.7349 21.0901 95.5007 20.414 95.5258 19.7223C95.497 19.0301 95.7317 18.3527 96.1825 17.8266C96.6289 17.3601 97.2466 17.0962 97.8924 17.0962C98.5381 17.0962 99.1558 17.3601 99.6022 17.8266C100.071 18.3436 100.316 19.0252 100.284 19.7223C100.312 20.4189 100.068 21.099 99.6022 21.618C99.1558 22.0846 98.5381 22.3485 97.8924 22.3485Z" fill="#696871"/>
<path d="M108.871 24.5795C107.758 24.6253 106.655 24.3592 105.686 23.8113C104.899 23.3369 104.37 22.5298 104.249 21.6183C104.249 21.3705 104.336 21.2465 104.608 21.2465H106.43C106.606 21.2534 106.764 21.3587 106.839 21.5191C107.099 22.1882 107.78 22.5227 108.871 22.5227C109.251 22.5401 109.63 22.4635 109.973 22.2997C110.215 22.1906 110.377 21.9572 110.395 21.6926C110.395 21.3705 110.196 21.1474 109.8 20.9987C109.33 20.8422 108.843 20.7383 108.35 20.689C107.766 20.6228 107.187 20.5194 106.616 20.3792C106.06 20.2535 105.555 19.9644 105.166 19.5491C104.702 18.9785 104.496 18.241 104.597 17.5128C104.698 16.7846 105.097 16.131 105.699 15.7081C106.592 15.1392 107.64 14.8621 108.697 14.9151C109.721 14.8805 110.734 15.1337 111.621 15.6461C112.345 16.0562 112.846 16.7708 112.984 17.5914C112.984 17.8392 112.873 17.9631 112.65 17.9631H110.816C110.658 17.9725 110.51 17.8839 110.444 17.7401C110.322 17.4466 110.091 17.2115 109.8 17.0834C109.472 16.9116 109.105 16.8263 108.734 16.8356C108.371 16.8158 108.009 16.8883 107.681 17.0462C107.445 17.1374 107.288 17.363 107.285 17.6162C107.301 17.964 107.542 18.2605 107.879 18.3472C108.355 18.5265 108.85 18.6512 109.354 18.7189C109.933 18.7952 110.508 18.9027 111.076 19.0411C111.631 19.1668 112.136 19.4559 112.526 19.8712C112.947 20.3334 113.165 20.9445 113.133 21.5687C113.155 22.44 112.717 23.2586 111.981 23.7246C111.055 24.3189 109.97 24.6171 108.871 24.5795Z" fill="#696871"/>
<path d="M126.232 23.9597C126.246 24.0486 126.224 24.1394 126.17 24.2117C126.117 24.284 126.036 24.3316 125.947 24.3438C125.495 24.4915 125.023 24.5708 124.547 24.5792C123.589 24.6784 122.649 24.2695 122.069 23.5013C121.194 24.2537 120.062 24.6398 118.909 24.5792C117.827 24.6291 116.774 24.2196 116.01 23.4517C115.252 22.6477 114.853 21.5695 114.907 20.4656V15.621C114.907 15.3856 115.019 15.2617 115.254 15.2617H117.336C117.571 15.2617 117.683 15.3856 117.683 15.621V20.0939C117.66 20.6512 117.85 21.1962 118.215 21.6179C118.584 22.0089 119.103 22.2212 119.64 22.2003C120.189 22.2243 120.724 22.028 121.127 21.6551C121.509 21.2618 121.711 20.7281 121.685 20.1807V15.621C121.685 15.3856 121.796 15.2617 122.032 15.2617H124.138C124.373 15.2617 124.485 15.3856 124.485 15.621V21.4569C124.485 21.9401 124.695 22.1755 125.104 22.1755C125.296 22.1829 125.488 22.1621 125.674 22.1136C125.769 22.0869 125.871 22.1052 125.951 22.1632C126.031 22.2212 126.079 22.3124 126.083 22.4109L126.232 23.9597Z" fill="#696871"/>
<path d="M145.92 23.9604C145.942 24.0502 145.923 24.1453 145.868 24.2197C145.813 24.294 145.727 24.3398 145.635 24.3445C145.174 24.4942 144.694 24.5736 144.21 24.5799C143.473 24.6179 142.745 24.4086 142.141 23.9852C141.61 23.6168 141.299 23.0078 141.31 22.362V19.4503C141.337 18.8947 141.151 18.3499 140.79 17.9263C140.438 17.5342 139.929 17.3205 139.402 17.344C138.928 17.326 138.471 17.527 138.163 17.8891C137.836 18.3043 137.669 18.8232 137.692 19.3512V23.9232C137.692 24.1586 137.581 24.2825 137.346 24.2825H135.252C135.153 24.2947 135.054 24.2608 134.984 24.1906C134.914 24.1204 134.88 24.0217 134.892 23.9232V19.4503C134.919 18.9008 134.748 18.3598 134.409 17.9263C134.103 17.5576 133.649 17.3442 133.17 17.344C132.659 17.3233 132.163 17.5216 131.807 17.8891C131.453 18.2911 131.27 18.8161 131.299 19.3512V23.9232C131.311 24.0217 131.277 24.1204 131.207 24.1906C131.137 24.2608 131.038 24.2947 130.94 24.2825H128.92C128.685 24.2825 128.573 24.1586 128.573 23.9232V18.0874C128.603 17.8859 128.535 17.6822 128.391 17.5382C128.247 17.3942 128.044 17.3268 127.842 17.3563H127.433C127.161 17.3563 127.024 17.2572 127.024 17.059V15.5969C127.011 15.4105 127.13 15.2401 127.309 15.188C127.738 15.0322 128.192 14.9566 128.648 14.965C129.541 14.8889 130.398 15.3322 130.853 16.1049C131.698 15.304 132.838 14.891 134 14.965C135.132 14.9097 136.223 15.3976 136.937 16.2784C137.767 15.3759 138.959 14.8938 140.183 14.965C141.276 14.9139 142.341 15.3227 143.119 16.0925C143.88 16.895 144.279 17.9743 144.222 19.0786V21.4699C144.222 21.9408 144.433 22.1762 144.829 22.1762C145.021 22.1851 145.214 22.1642 145.399 22.1142C145.655 22.1142 145.792 22.2133 145.808 22.4116L145.92 23.9604Z" fill="#696871"/>
<path fill-rule="evenodd" clip-rule="evenodd" d="M0.630859 13.6512C2.51181 6.09102 9.30075 0.78418 17.0914 0.78418C24.882 0.78418 31.6709 6.09102 33.5519 13.6512H32.065C29.5569 13.6142 27.1001 14.3638 25.0397 15.7947C24.9208 15.8808 24.7967 15.9594 24.668 16.0301H24.4946C24.3659 15.9594 24.2418 15.8808 24.1229 15.7947C19.8711 12.9356 14.3116 12.9356 10.0599 15.7947C9.94097 15.8808 9.81683 15.9594 9.68817 16.0301H9.5147C9.38604 15.9594 9.2619 15.8808 9.14299 15.7947C7.08265 14.3638 4.62589 13.6142 2.1177 13.6512H0.630859ZM29.388 21.4196C30.1512 20.8252 31.0972 20.5142 32.0643 20.5399H34.0591V16.5626H32.0643C30.3609 16.542 28.6964 17.0722 27.3188 18.0742C25.7274 19.2474 23.5575 19.2474 21.9662 18.0742C19.0731 16.0602 15.232 16.0602 12.3389 18.0742C10.7476 19.2474 8.57764 19.2474 6.9863 18.0742C5.59164 17.0593 3.90334 16.5285 2.17886 16.5626H0.12207V20.5399H2.11691C3.08398 20.5142 4.02996 20.8252 4.79321 21.4196C7.68132 23.435 11.52 23.435 14.4081 21.4196C15.1723 20.827 16.1176 20.5163 17.0844 20.5399C18.0518 20.5121 18.9984 20.8233 19.7607 21.4196C22.6538 23.4335 26.4949 23.4335 29.388 21.4196ZM32.0643 27.6522C31.0972 27.6265 30.1512 27.9375 29.388 28.5319C26.4949 30.5458 22.6538 30.5458 19.7607 28.5319C18.9984 27.9356 18.0518 27.6244 17.0844 27.6522C16.1176 27.6286 15.1723 27.9393 14.4081 28.5319C11.52 30.5473 7.68132 30.5473 4.79321 28.5319C4.02996 27.9375 3.08398 27.6265 2.11691 27.6522H0.12207V23.6749H2.17886C3.90334 23.6408 5.59164 24.1716 6.9863 25.1865C8.57764 26.3597 10.7476 26.3597 12.3389 25.1865C15.232 23.1725 19.0731 23.1725 21.9662 25.1865C23.5575 26.3597 25.7274 26.3597 27.3188 25.1865C28.6964 24.1845 30.3609 23.6543 32.0643 23.6749H34.0591V27.6522H32.0643Z" fill="#696871"/>
</svg>
