<svg width="148" height="35" viewBox="0 0 148 35" fill="none" xmlns="http://www.w3.org/2000/svg">
<path fill-rule="evenodd" clip-rule="evenodd" d="M88.2156 9.14405C87.5136 9.45512 87.0686 10.1589 87.0885 10.9264V10.9512C87.0839 11.4554 87.2899 11.9386 87.6568 12.2844C88.0238 12.6302 88.5184 12.8071 89.0214 12.7725C89.789 12.7572 90.4716 12.2804 90.7502 11.5649C91.0287 10.8495 90.8482 10.0366 90.293 9.50633C89.7378 8.97603 88.9175 8.83298 88.2156 9.14405ZM46.7317 9.99707H43.0146V25.0265H46.7317V9.99707ZM54.0047 13.4165C50.4859 13.4165 48.2061 15.6344 48.2061 19.3515C48.2061 23.1305 50.4363 25.2988 54.0047 25.2988C57.5731 25.2988 59.8034 23.0685 59.8034 19.3515C59.8034 15.6344 57.5236 13.4165 54.0047 13.4165ZM56.0752 19.3517C56.0752 17.3073 55.2698 16.1055 54.006 16.1055C52.7422 16.1055 51.9492 17.3445 51.9492 19.3517C51.9492 21.359 52.7298 22.5732 54.006 22.5732C55.2822 22.5732 56.0752 21.4333 56.0752 19.3641V19.3517ZM64.7716 25.758H61.2032V25.7704C61.4138 27.8272 63.4582 29.3017 66.7417 29.3017C70.2729 29.3017 72.6642 27.6166 72.6642 24.9031V13.6279H68.9471V15.6971C68.3741 14.3277 67.0107 13.4583 65.5274 13.5164C62.6776 13.5164 60.9678 15.7591 60.9678 19.3151C60.9678 22.8711 62.7644 24.9403 65.4778 24.9403C66.9148 25.0183 68.2545 24.2135 68.8604 22.9083H68.9347V24.9898C68.9347 26.105 68.1913 26.8732 66.7788 26.8732C65.9367 26.9864 65.1203 26.5328 64.7716 25.758ZM68.9468 19.3391C68.9468 17.5301 68.1167 16.3902 66.8033 16.3902C65.4899 16.3902 64.6846 17.5177 64.6846 19.3391C64.6846 21.1605 65.4775 22.1889 66.8033 22.1889C68.1291 22.1889 68.9468 21.1853 68.9468 19.3515V19.3391ZM79.8641 13.4048C76.3452 13.4048 74.0654 15.6226 74.0654 19.3397V19.3521C74.0654 23.1312 76.2833 25.2871 79.8641 25.2871C83.4449 25.2871 85.6751 23.0568 85.6751 19.3397C85.6751 15.6226 83.3829 13.4048 79.8641 13.4048ZM81.9341 19.3395C81.9341 17.2951 81.1288 16.0933 79.865 16.0933C78.6011 16.0933 77.8701 17.3447 77.8701 19.3643C77.8701 21.3839 78.6507 22.5858 79.9145 22.5858C81.1783 22.5858 81.9341 21.4335 81.9341 19.3643V19.3395ZM87.0879 13.6519H90.805V25.0261H87.0879V13.6519ZM99.8242 25.1748C102.649 25.1748 104.297 23.0561 104.297 19.339L104.347 19.3637C104.347 15.6467 102.649 13.5155 99.7994 13.466C98.3041 13.3992 96.9271 14.2759 96.3549 15.659H96.2806V13.627H92.5635V28.6689H96.2806V23.0684H96.3549C96.9549 24.4289 98.3404 25.27 99.8242 25.1748ZM100.579 19.3392C100.579 17.5302 99.7493 16.3779 98.4483 16.3779C97.1474 16.3779 96.3172 17.5426 96.3048 19.3392C96.2924 21.1358 97.1474 22.2881 98.4483 22.2881C99.7493 22.2881 100.579 21.1606 100.579 19.364V19.3392ZM115.72 17.1954C115.634 14.8537 113.763 13.3916 110.677 13.3916V13.4164C107.605 13.4164 105.61 14.866 105.585 17.0963C105.585 18.8309 106.75 20.008 108.968 20.4665L111.111 20.9249C112.003 21.1108 112.35 21.2347 112.35 21.8294C112.35 22.4241 111.855 22.7834 110.764 22.7834C109.674 22.7834 109.005 22.2878 108.893 21.4453H105.312C105.474 23.7623 107.543 25.2739 110.702 25.2739C113.862 25.2739 116.005 23.7623 116.005 21.4081C116.005 19.6859 115.039 18.769 112.771 18.2858L110.393 17.8025C109.562 17.6291 109.153 17.4432 109.153 16.8609C109.153 16.2785 109.612 15.8821 110.64 15.8821C111.669 15.8821 112.338 16.3901 112.338 17.1954H115.72ZM128.409 25.0012H124.828V22.8825H124.754C124.348 24.3482 122.976 25.3333 121.458 25.2491C120.315 25.314 119.201 24.8805 118.402 24.0606C117.604 23.2407 117.2 22.1149 117.295 20.9744V13.627H121.012V20.1195C121.012 21.47 121.706 22.1886 122.858 22.1886C123.405 22.1898 123.925 21.9549 124.286 21.5442C124.647 21.1335 124.813 20.5871 124.742 20.0451V13.627H128.459L128.409 25.0012ZM133.799 13.6274H130.206L130.144 25.0265H133.861V18.3234C133.804 17.852 133.952 17.3789 134.267 17.0236C134.582 16.6684 135.034 16.465 135.509 16.4648C136.525 16.4648 137.082 17.0843 137.082 18.2242V25.0265H140.613V18.2986C140.552 17.8329 140.696 17.3637 141.007 17.0121C141.319 16.6604 141.767 16.4608 142.236 16.4648C143.277 16.4648 143.835 17.0348 143.835 18.2738V25.0265H147.552V17.2826C147.626 16.2624 147.264 15.2586 146.555 14.5213C145.846 13.784 144.857 13.3825 143.835 13.4168C142.241 13.3483 140.803 14.368 140.341 15.8949H140.266C140.02 14.3719 138.645 13.2936 137.107 13.4168C135.608 13.3891 134.279 14.3769 133.873 15.8205H133.799V13.6274Z" fill="#696871"/>
<path fill-rule="evenodd" clip-rule="evenodd" d="M30.1419 6.68935C31.1549 7.89361 31.9894 9.23725 32.62 10.679C33.5384 12.7812 34.0109 15.051 34.0077 17.345C34.0009 26.6047 26.5033 34.1134 17.2436 34.1339C15.0891 34.1327 12.9554 33.7118 10.9617 32.8948C9.53975 32.3298 8.20488 31.5665 6.99682 30.6274C1.85855 26.7115 -0.57238 20.1916 0.748044 13.8676C2.06847 7.54363 6.90525 2.54113 13.1812 1.0085C19.4571 -0.524135 26.0552 1.68585 30.1419 6.68935ZM22.8311 5.19013C21.077 4.37378 19.1655 3.95089 17.2307 3.9511L17.2431 3.92632C12.655 3.9229 8.38505 6.27029 5.92947 10.1459C3.47389 14.0216 3.17509 18.8851 5.13777 23.0322C5.69743 22.4442 6.04231 21.6846 6.1166 20.8762C6.56725 17.7631 9.01273 15.3176 12.1259 14.867C13.8824 14.7077 15.2851 13.336 15.4837 11.5835C15.9343 8.47035 18.3798 6.02488 21.493 5.57423C21.9536 5.50404 22.4034 5.37495 22.8311 5.19013ZM6.98535 26.018C7.03491 25.9726 7.08447 25.9285 7.13403 25.8845L7.13409 25.8844C7.23319 25.7963 7.3323 25.7082 7.4314 25.6091C8.53371 24.5404 9.24127 23.1296 9.43863 21.607C9.51865 20.7512 9.90079 19.9518 10.5166 19.352C11.1092 18.7352 11.9067 18.3562 12.7592 18.2864C15.8724 17.8358 18.3179 15.3903 18.7685 12.2772C18.8221 11.382 19.2063 10.5386 19.8465 9.9106C20.4537 9.30577 21.2589 8.94057 22.1139 8.88221C23.5065 8.69061 24.8052 8.07153 25.831 7.1104C26.999 8.07941 27.9886 9.24512 28.7551 10.5549C28.708 10.6185 28.654 10.6767 28.594 10.7284C28.0026 11.3506 27.206 11.7379 26.3514 11.8187C23.2343 12.2616 20.785 14.7109 20.3421 17.828C20.1621 19.5866 18.7684 20.9751 17.0091 21.1486C13.8873 21.5957 11.429 24.0389 10.9626 27.1579C10.896 27.7635 10.688 28.3449 10.3555 28.8554C9.08427 28.1006 7.94571 27.142 6.98535 26.018ZM13.5146 30.2807C14.7232 30.6273 15.9745 30.8024 17.2317 30.8011V30.7391C21.3813 30.723 25.2896 28.7862 27.8157 25.494C30.3418 22.2018 31.201 17.9254 30.1424 13.9131C29.2018 14.5782 28.1129 15.0035 26.9705 15.1521C25.2161 15.3311 23.8289 16.7183 23.6499 18.4727C23.1979 21.5898 20.7462 24.0364 17.6282 24.482C15.8738 24.661 14.4866 26.0482 14.3076 27.8026C14.1968 28.6701 13.9281 29.51 13.5146 30.2807Z" fill="#696871"/>
</svg>
